<svg width="22" height="22" viewBox="0 0 22 22" fill="none" xmlns="http://www.w3.org/2000/svg">
<g clip-path="url(#clip0_27590_29390)">
<path fill-rule="evenodd" clip-rule="evenodd" d="M10.4499 1.77441L9.32673 5.10256L4.76893 5.05095L8.38414 7.56432L7.02297 11.8609L10.4499 9.59337V1.77441ZM10.4499 16.3332C10.2685 16.218 10.0825 16.1039 9.89173 15.9908C9.29187 15.6572 8.98124 15.4815 8.9548 15.4617C8.92113 15.435 8.90854 15.3997 8.91924 15.3607C8.9227 15.3377 8.94599 15.2984 8.98501 15.2471L9.35261 14.775C9.45899 14.6365 9.49266 14.4785 9.45206 14.301C9.41839 14.1572 9.35639 14.0401 9.26732 13.9514C9.19305 13.8784 9.12192 13.8519 9.05992 13.8733C8.99949 13.8875 8.96424 13.9426 8.95134 14.0367C8.94788 14.0684 8.95858 14.1024 8.9869 14.138C9.00107 14.1556 9.02593 14.1874 9.05772 14.2337C9.10398 14.3186 9.06653 14.4146 8.94788 14.521C8.83615 14.6296 8.72978 14.6985 8.62308 14.7253L8.49688 14.7413L8.36564 14.9119L6.59439 13.5347C6.40083 13.3839 6.09398 13.1709 5.67319 12.8923C5.14257 12.5427 4.7306 12.2745 4.4398 12.0901C3.30586 11.3483 2.49985 10.7768 2.01707 10.3755C1.49148 9.93174 1.03545 9.52197 0.64866 9.14745L0.228821 8.72667L0.239521 9.37814C0.266273 9.86943 0.326699 10.2546 0.420486 10.5351C0.594528 11.0232 0.899808 11.5201 1.33822 12.0243C1.72847 12.4731 2.23265 12.9364 2.84857 13.4157L5.68327 15.6166C5.71159 15.6395 5.73457 15.6521 5.74527 15.654C5.74904 15.6506 5.78618 15.6238 5.85888 15.576C5.96022 15.5174 6.02222 15.4819 6.0452 15.4712C6.15346 15.418 6.27243 15.3966 6.39643 15.4038C6.52955 15.4092 6.66646 15.4642 6.80116 15.5634C6.9431 15.6663 7.04601 15.7906 7.11179 15.9395C7.204 16.1399 7.23453 16.3546 7.204 16.5802C7.19141 16.6939 7.16844 16.7876 7.13476 16.8569C7.05482 17.0042 6.96985 17.0646 6.87732 17.0416L6.87365 17.04C6.82432 17.0179 6.78991 17.0025 6.76748 16.9972C6.725 16.9777 6.69101 16.9724 6.66646 16.9812C6.57582 17.0164 6.52955 17.0662 6.52798 17.1319C6.52263 17.1977 6.567 17.2597 6.65418 17.3132C6.76402 17.379 6.89211 17.4108 7.0394 17.4054C7.22194 17.4036 7.36797 17.3309 7.47435 17.1943L7.84163 16.7222C7.88065 16.6706 7.91433 16.6372 7.93919 16.623C7.97476 16.6016 8.01221 16.6051 8.04557 16.6319C8.07043 16.6514 8.31906 16.9104 8.79083 17.4076C8.96625 17.5841 9.14184 17.7545 9.31754 17.9189C8.97825 18.2079 8.63163 18.5195 8.2781 18.8538C7.96936 19.1411 7.67446 19.4181 7.39058 19.6878C7.29459 19.7605 7.17405 19.7784 7.02676 19.741C6.95217 19.7234 6.85618 19.6916 6.74257 19.64C6.68057 19.6135 6.62392 19.6186 6.57766 19.656C6.53139 19.6843 6.50999 19.7394 6.51534 19.8175C6.52258 19.8883 6.66798 20.1174 6.95375 20.5026C6.93424 20.5734 6.93266 20.648 6.95029 20.7242C6.96602 20.806 7.00159 20.8822 7.04974 20.9461C7.1045 21.0153 7.16996 21.0669 7.24644 21.1059C7.31599 21.1415 7.38681 21.1591 7.46328 21.1557C7.78084 21.5585 7.97785 21.7716 8.05244 21.7964C8.12326 21.816 8.18211 21.8106 8.2246 21.7769C8.26897 21.7363 8.2866 21.6847 8.27967 21.6208C8.26016 21.4968 8.24977 21.3936 8.24789 21.3121C8.25135 21.1645 8.2995 21.0546 8.39517 20.9819C8.72532 20.7742 9.06805 20.5561 9.42274 20.3289C9.78318 20.0974 10.1256 19.868 10.4499 19.6404V16.3332Z" fill="#CCA966"/>
<path fill-rule="evenodd" clip-rule="evenodd" d="M11.55 14.5816C11.6656 15.1892 11.827 15.7837 12.0226 16.3721C12.1099 16.6354 12.2519 16.8534 12.4409 17.0455C12.8187 17.4295 13.1989 17.8114 13.5846 18.1875C13.656 18.2568 13.738 18.3157 13.8277 18.3802C13.87 18.4106 13.9141 18.4423 13.9596 18.4769C14.1356 18.3222 14.2893 18.1875 14.4391 18.0565C14.3546 17.9059 14.2876 17.7863 14.2102 17.6481L14.2961 17.5727L14.297 17.572C14.3462 17.5287 14.3908 17.4895 14.4292 17.456C14.66 17.4929 14.7892 17.6313 14.9356 17.7883L14.9586 17.8128L14.9919 17.8482C15.0191 17.9715 15.048 18.0976 15.0773 18.2258L15.0775 18.2269C15.1449 18.5212 15.2147 18.8266 15.2731 19.1345C15.3724 19.6594 15.4436 20.1874 15.4212 20.7257L15.421 20.731C15.4063 21.0871 15.3914 21.448 15.5443 21.8147C16.0668 21.9268 16.6027 21.922 17.1414 21.8247C17.1566 21.7593 17.1728 21.7018 17.1875 21.6495C17.2157 21.5495 17.2384 21.4687 17.2386 21.3888C17.2398 21.2348 17.2423 21.0807 17.2448 20.9265C17.2557 20.2519 17.2667 19.5763 17.1651 18.9073C17.075 18.3143 16.9643 17.7217 16.81 17.1428C16.6825 16.6643 16.5494 16.18 16.2607 15.7558C16.2404 15.7259 16.2183 15.6963 16.1958 15.6662C16.1032 15.5423 16.0036 15.4089 15.9967 15.2079C16.0486 15.2116 16.0987 15.2156 16.1474 15.2194C16.2547 15.2279 16.3565 15.2359 16.458 15.2402C16.5821 15.2457 16.7065 15.247 16.8306 15.2422C16.8776 15.2404 16.9247 15.2342 16.9718 15.2281C17.0284 15.2207 17.0849 15.2134 17.1414 15.2134C17.689 15.2161 18.1991 15.0728 18.6735 14.8077C18.9272 14.6661 19.1327 14.4681 19.2561 14.1886C18.8399 14.0908 18.4324 13.9945 18.0178 13.8965L17.438 13.7596C17.4568 13.7426 17.4714 13.7276 17.4836 13.7151C17.5051 13.6929 17.5193 13.6783 17.536 13.6737C18.0502 13.5314 18.4995 13.2615 18.9082 12.9326C19.3359 12.5888 19.5992 12.1402 19.6889 11.5589H19.1729C19.1272 11.5589 19.0815 11.5593 19.0358 11.5597C18.9292 11.5606 18.8225 11.5614 18.7164 11.5576C18.6733 11.5558 18.6298 11.557 18.585 11.5581C18.4731 11.5611 18.3533 11.5643 18.2128 11.5225C18.2654 11.4871 18.3115 11.4542 18.3539 11.424C18.4354 11.3661 18.5032 11.3179 18.5762 11.2795C18.9615 11.078 19.2348 10.7604 19.4631 10.4067C19.6133 10.1743 19.6841 9.90791 19.6054 9.61779C18.6411 10.044 18.3992 10.1231 18.1486 10.0849C18.7051 9.49473 18.8966 8.79313 18.8529 7.98945C18.6823 8.05696 18.5361 8.16083 18.391 8.26397C18.1924 8.40505 17.9958 8.54477 17.7412 8.58826C17.9894 7.76188 18.1317 6.96816 17.8357 6.15382C17.6139 6.2344 17.4595 6.38774 17.3011 6.54496L17.3011 6.54497C17.1967 6.64866 17.0905 6.75403 16.9623 6.84132C16.9623 6.67128 16.9619 6.50553 16.9615 6.34273L16.9615 6.3418V6.33996C16.9607 5.96763 16.9598 5.61075 16.9636 5.25354C16.9667 4.9586 16.8928 4.67948 16.8138 4.40138C16.8032 4.36276 16.7729 4.32982 16.74 4.29393L16.74 4.29392L16.7399 4.29387C16.7236 4.27614 16.7066 4.25763 16.6911 4.23741C16.6255 4.28281 16.5647 4.33205 16.5049 4.38043C16.3709 4.48884 16.2422 4.59299 16.0775 4.64029C16.0729 4.6265 16.0685 4.61488 16.0646 4.60466L16.0646 4.60464L16.0646 4.60463L16.0646 4.60463C16.0573 4.58558 16.0519 4.57142 16.051 4.5571C16.0427 4.43319 16.0353 4.30909 16.0278 4.18495L16.0278 4.1849C16.0123 3.92653 15.9967 3.66779 15.974 3.41035C15.9623 3.27319 15.9386 3.12779 15.8774 3.00748C15.8502 2.95429 15.8271 2.89767 15.8041 2.84105L15.8041 2.84104C15.7416 2.68762 15.6791 2.53406 15.533 2.44819C15.4175 2.49414 15.3568 2.58836 15.2978 2.67972L15.2978 2.67973C15.2337 2.77909 15.1718 2.87508 15.0441 2.90194C15.0374 2.89078 15.0307 2.88134 15.0248 2.8729C15.0135 2.85691 15.0048 2.84451 15.0026 2.83079C14.8922 2.16185 14.7086 1.51732 14.3821 0.919195C14.1934 0.574757 13.9562 0.277413 13.5743 0.130976C13.487 0.0979759 13.3979 0.0732259 13.3044 0.183913C13.3462 0.257786 13.3895 0.33149 13.433 0.40552L13.433 0.405538C13.5288 0.568464 13.6255 0.733091 13.7087 0.904413C13.8 1.09377 13.8919 1.28293 13.9837 1.47208C14.3451 2.2166 14.7065 2.96113 15.0404 3.71766C15.3189 4.34782 15.5597 4.9948 15.8003 5.64127L15.8003 5.64128L15.8003 5.64128L15.8003 5.64129L15.8003 5.6413L15.8003 5.6413C15.8391 5.7456 15.878 5.8499 15.9169 5.9541C16.3071 6.99738 16.5797 8.07573 16.8045 9.16335L16.8114 9.19662L16.8114 9.19663C16.9333 9.78359 17.0567 10.378 17.0355 10.9869C17.0338 11.0294 17.0417 11.0723 17.0497 11.1154C17.0545 11.1413 17.0592 11.1672 17.062 11.1932C17.0662 11.234 17.0723 11.275 17.0784 11.3161C17.0928 11.4135 17.1072 11.5112 17.0981 11.6067L17.0943 11.6445C17.0616 11.9766 17.0286 12.3114 16.9547 12.6359C16.8774 12.9755 16.7488 13.3045 16.479 13.5524C16.1386 13.8648 15.6904 13.9425 15.3171 13.7438C15.2604 13.6311 15.1975 13.5059 15.1421 13.3953C15.1222 12.936 15.1325 12.4991 15.2573 12.0653C15.3045 11.8996 15.3188 11.7245 15.3328 11.5527L15.3328 11.5527C15.3391 11.4755 15.3454 11.3989 15.3546 11.3242L15.1624 11.1454C14.7295 11.255 14.3696 11.4873 13.9983 11.7271C13.8848 11.8004 13.7703 11.8743 13.6523 11.9457C13.3535 11.5723 13.0834 11.188 12.8156 10.807L12.8156 10.807C12.6307 10.5441 12.4469 10.2827 12.2556 10.0275L12.97 8.48135C12.9622 8.40795 12.9523 8.33066 12.9419 8.25064C12.9192 8.07436 12.8947 7.88484 12.8888 7.69451C12.8753 7.25131 12.8655 6.80778 12.8556 6.36416C12.8426 5.78106 12.8297 5.19779 12.8084 4.61485C12.8032 4.47606 12.7588 4.33842 12.7165 4.20704C12.6976 4.14839 12.6791 4.09099 12.6647 4.03529L12.3643 3.89023L11.55 6.49024V7.69849C11.6258 7.8125 11.6662 7.94073 11.6788 8.07298C11.6487 8.20563 11.6053 8.31308 11.55 8.39867V10.8596C11.56 10.854 11.5702 10.8487 11.5809 10.8436C11.6243 10.9045 11.6661 10.9645 11.7074 11.0235C11.7812 11.1292 11.8531 11.2321 11.9281 11.3324C12.1532 11.6349 12.3791 11.9369 12.605 12.2389C12.9141 12.6521 13.2234 13.0656 13.5306 13.4802C13.6356 13.6218 13.7408 13.7633 13.8461 13.9048C14.2879 14.4989 14.73 15.0933 15.1559 15.6991C15.368 16.0005 15.5416 16.334 15.6973 16.6698C15.9006 17.1075 16.0113 17.5748 16.122 18.0423C16.1502 18.1612 16.1784 18.2801 16.2081 18.3985C16.3721 19.053 16.4855 19.7124 16.4721 20.3899L16.4716 20.4161C16.4697 20.5241 16.4677 20.6327 16.4728 20.7409C16.4838 20.9866 16.4594 21.2249 16.3518 21.4438H15.8523C15.8499 21.3946 15.8478 21.3492 15.8457 21.3058C15.8433 21.2519 15.8409 21.2004 15.8382 21.1499C15.831 21.0089 15.8262 20.8676 15.8214 20.7263C15.8103 20.4022 15.7992 20.0782 15.7595 19.7574C15.6928 19.2198 15.5883 18.6852 15.4725 18.1555C15.4085 17.8633 15.3405 17.5632 15.1593 17.3109L14.8807 16.9232L14.8806 16.9231L14.8806 16.9231L14.8806 16.9231L14.8806 16.923L14.8806 16.923C14.4863 16.374 14.0915 15.8243 13.6915 15.2794C13.2934 14.7361 12.8887 14.1977 12.4839 13.6591L12.3182 13.4386C12.068 13.1057 11.8159 12.774 11.5637 12.4422L11.5629 12.4412C11.5586 12.4355 11.5543 12.4298 11.55 12.4242V13.1781L11.6188 13.1497C11.6759 13.1262 11.7287 13.1045 11.7868 13.0804C11.8319 13.2197 11.8798 13.355 11.9273 13.4887L11.9273 13.4887C12.033 13.787 12.136 14.0777 12.1989 14.3884C12.1266 14.4142 12.0637 14.4369 11.9998 14.4599L11.8682 14.5073C11.7625 14.1863 11.659 13.872 11.55 13.5415V14.5816ZM16.8558 15.6626C16.9557 15.6519 17.0539 15.6403 17.151 15.6288C17.3717 15.6027 17.5867 15.5773 17.8025 15.5646C18.2545 15.5378 18.6691 15.3807 19.0547 15.1724C19.5738 14.8919 19.9846 14.4822 20.2634 13.9136L19.6758 13.7618L19.6641 13.7588L19.6569 13.757C19.4233 13.6967 19.1878 13.6359 18.9461 13.5733C19.7113 12.9645 20.2802 12.2626 20.3366 11.2114H19.4672C20.0867 10.5796 20.2799 9.8632 20.2647 9.0327C19.9127 9.11491 19.6124 9.25493 19.2845 9.40777L19.173 9.45964C19.4019 8.65526 19.4098 7.87392 19.2816 7.06886L18.4398 7.72611C18.4398 7.56686 18.441 7.41492 18.4423 7.26799V7.26797V7.26795V7.26792V7.2679C18.4449 6.9496 18.4474 6.65482 18.4363 6.36039C18.4202 5.94067 18.3222 5.53917 18.061 5.14248L17.4539 5.81589L17.4559 5.67349C17.4651 5.04145 17.4736 4.45598 17.2452 3.90326C17.1985 3.79033 17.1364 3.68373 17.0686 3.56742C17.0353 3.51028 17.0006 3.45068 16.9658 3.38695C16.7905 3.54817 16.6495 3.67776 16.4862 3.82661C16.4749 3.79884 16.4625 3.77365 16.4509 3.75008L16.4509 3.75001C16.4281 3.7036 16.4083 3.66344 16.4058 3.62242C16.3683 3.06932 16.2092 2.5537 15.9455 2.06695C15.8606 1.91054 15.7654 1.77098 15.5633 1.70429L15.3202 2.05801C15.2989 1.98893 15.2781 1.92232 15.2578 1.85736L15.2577 1.85686L15.2576 1.85652L15.2574 1.85586L15.2572 1.85524L15.2569 1.85426C15.2139 1.71662 15.1731 1.58581 15.1343 1.45507C15.1103 1.37357 15.074 1.2977 15.0375 1.22151C14.9801 1.10138 14.9222 0.980435 14.9115 0.835293C14.9037 0.729237 14.8653 0.625749 14.8261 0.519874L14.8261 0.519867C14.795 0.43598 14.7633 0.350579 14.7458 0.26123C15.1983 0.440036 15.4398 0.813103 15.6983 1.21254C15.734 1.26768 15.77 1.3234 15.807 1.37911L16.0273 0.720481C16.3821 0.944606 16.5687 1.25948 16.6815 1.61939C16.7657 1.88902 16.8406 2.16154 16.9174 2.44119C16.9532 2.57153 16.9895 2.70342 17.0273 2.83729C17.1667 2.70699 17.2627 2.54524 17.3628 2.37666L17.3628 2.37665C17.4261 2.26994 17.4911 2.1605 17.5697 2.05457C17.5958 2.09317 17.6232 2.12839 17.6493 2.16198L17.6494 2.16202C17.7023 2.23013 17.7501 2.29158 17.7715 2.36086C17.8286 2.548 17.8761 2.73818 17.9237 2.92856C17.9546 3.0522 17.9855 3.17592 18.019 3.29895C18.096 3.57982 18.0918 3.86455 18.0877 4.14939C18.0859 4.27172 18.0842 4.39409 18.0888 4.51617C18.0911 4.57563 18.0963 4.63464 18.1031 4.71178L18.1031 4.71235L18.1031 4.71257C18.1067 4.75297 18.1107 4.79834 18.1149 4.85133C18.2557 4.68264 18.3672 4.50556 18.4758 4.33305C18.6226 4.09987 18.7642 3.87502 18.9657 3.69048C19.1912 3.93489 19.2826 4.23636 19.3321 4.52167C19.4086 4.95916 19.4394 5.40481 19.4701 5.84939L19.4702 5.8509C19.4762 5.93759 19.4822 6.02498 19.4886 6.11151C19.4952 6.20557 19.4784 6.30147 19.4593 6.41095C19.4497 6.46552 19.4396 6.52346 19.4315 6.58623C19.755 6.41265 19.9876 6.17923 20.2287 5.93724L20.2287 5.93723L20.2287 5.93722C20.2998 5.8658 20.3717 5.79364 20.4469 5.72204C20.6508 6.19608 20.6411 6.64536 20.558 7.12179C20.4761 7.58758 20.2733 7.99458 20.0148 8.45864L20.2123 8.3945C20.6441 8.25425 21.0353 8.12718 21.4441 7.99389C21.5438 9.01792 21.2379 9.89654 20.5745 10.6782C20.7345 10.7529 20.8848 10.7118 21.0328 10.6712C21.1041 10.6516 21.175 10.6322 21.2461 10.626C21.4032 10.6124 21.5573 10.565 21.7124 10.5172C21.7807 10.4962 21.8492 10.4751 21.9182 10.4569L22 10.6703L21.9738 10.8767C21.9601 10.9848 21.9454 11.1 21.9275 11.2437C21.6958 11.9333 21.1716 12.4736 20.4641 12.9264C20.6039 12.9689 20.7239 12.9652 20.8362 12.9617C20.8819 12.9603 20.9262 12.9589 20.9701 12.9607C21.0758 12.965 21.1819 12.964 21.2878 12.963C21.3341 12.9626 21.3804 12.9621 21.4266 12.9621H21.9639C21.9425 13.0208 21.9247 13.0763 21.9079 13.1286L21.9079 13.1287C21.8746 13.2326 21.8452 13.3245 21.7986 13.4066C21.4754 13.9779 21.0066 14.4041 20.4435 14.7331C20.3127 14.8097 20.1838 14.8891 20.0465 14.9737L19.8983 15.0648C20.0107 15.1373 20.1339 15.1842 20.2553 15.2303C20.4822 15.3166 20.7029 15.4005 20.835 15.6451C20.8171 15.6589 20.8 15.6751 20.7833 15.6911C20.7482 15.7245 20.7145 15.7566 20.6766 15.7626C19.9908 15.8695 19.4122 16.214 18.8481 16.5863C18.5649 16.7738 18.2846 16.9655 17.9963 17.1627C17.8613 17.2551 17.7244 17.3487 17.5849 17.4436C17.4607 17.2904 17.395 17.1009 17.3286 16.9094C17.2914 16.8023 17.254 16.6946 17.2061 16.5921C17.1099 16.3878 17.0355 16.1738 16.9591 15.9538L16.959 15.9538L16.9587 15.9527L16.9586 15.9525C16.9254 15.857 16.8917 15.7601 16.8558 15.6626Z" fill="#66AACC"/>
</g>
<defs>
<clipPath id="clip0_27590_29390">
<rect width="22" height="22" fill="white"/>
</clipPath>
</defs>
</svg>
