<svg width="14" height="14" viewBox="0 0 14 14" fill="none" xmlns="http://www.w3.org/2000/svg">
<g clip-path="url(#clip0_24155_29610)">
<path fill-rule="evenodd" clip-rule="evenodd" d="M10.9082 13.8884C10.5654 13.9503 10.2244 13.9534 9.89188 13.8821C9.7941 13.6476 9.80417 13.4168 9.81357 13.1891C9.82779 12.8465 9.78251 12.5105 9.71929 12.1765C9.66592 11.895 9.59745 11.6167 9.54035 11.3579C9.43098 11.2431 9.34763 11.1348 9.18226 11.1083C9.1442 11.1416 9.09651 11.1836 9.04292 11.2306C9.09213 11.3186 9.13479 11.3947 9.1886 11.4905C9.09323 11.5738 8.99545 11.6596 8.88345 11.758C8.7931 11.6893 8.71173 11.6388 8.64479 11.5738C8.39935 11.3345 8.15742 11.0915 7.91701 10.8472C7.7967 10.7249 7.70635 10.5862 7.65079 10.4186C7.49482 9.9494 7.37298 9.47406 7.29992 8.98384C7.24676 8.62662 7.17479 8.27334 7.16976 7.91065C7.16867 7.82556 7.13913 7.74112 7.15117 7.64443C7.38063 7.94696 7.61098 8.24862 7.83892 8.55181C8.1316 8.9414 8.42495 9.33034 8.71282 9.72321C9.02738 10.1517 9.3367 10.5847 9.64688 11.016C9.76217 11.1766 9.80548 11.3676 9.84617 11.5535C9.91988 11.8906 9.98638 12.2307 10.0288 12.5729C10.0651 12.866 10.0638 13.1633 10.0789 13.459C10.082 13.5172 10.0844 13.5756 10.0879 13.6461C10.1994 13.6461 10.3005 13.6461 10.4057 13.6461C10.4742 13.5067 10.4897 13.3551 10.4827 13.1987C10.4792 13.1243 10.481 13.0495 10.4823 12.9754C10.4908 12.5442 10.4186 12.1247 10.3143 11.7081C10.2211 11.3365 10.1515 10.9574 9.98923 10.6081C9.89013 10.3943 9.77967 10.1821 9.6447 9.99031C9.30913 9.51299 8.95782 9.04684 8.61045 8.57827C8.27204 8.12152 7.92992 7.6674 7.59063 7.21152C7.51626 7.11199 7.4467 7.00852 7.3697 6.90046C7.17326 6.99452 7.15554 7.23209 6.96632 7.33796C6.81429 7.23406 6.78235 7.01071 6.5916 6.90768C6.51001 7.01246 6.42404 7.11834 6.34245 7.22771C5.99201 7.69387 5.6407 8.15959 5.29485 8.62902C5.00982 9.01534 4.72829 9.40449 4.45267 9.79715C4.30851 10.0026 4.17332 10.215 4.04645 10.4311C3.85307 10.761 3.78417 11.1357 3.68704 11.4984C3.61529 11.7674 3.54879 12.0409 3.51532 12.3169C3.48032 12.6024 3.43067 12.8898 3.46151 13.1799C3.47726 13.3324 3.50373 13.4842 3.52735 13.6474C3.6282 13.6474 3.72948 13.6474 3.84323 13.6474C3.84979 13.6132 3.86073 13.5789 3.86226 13.5443C3.88151 13.0944 3.90382 12.6459 3.9946 12.2032C4.04885 11.9365 4.09632 11.6688 4.14226 11.4008C4.1707 11.2354 4.25776 11.0974 4.34788 10.9651C4.56926 10.6424 4.79917 10.3254 5.03126 10.0102C5.3071 9.63549 5.58907 9.26559 5.86667 8.89218C6.15345 8.50762 6.4376 8.12109 6.72417 7.73653C6.74079 7.71421 6.76792 7.69978 6.80182 7.67243C6.80685 7.71596 6.81582 7.74549 6.81276 7.77327C6.78826 8.00012 6.7642 8.22652 6.73423 8.45249C6.70492 8.67081 6.67145 8.88912 6.63448 9.10656C6.55638 9.56418 6.44832 10.0139 6.29388 10.4527C6.21688 10.6711 6.05938 10.8334 5.91238 10.9942C5.66848 11.2617 5.39154 11.4984 5.14042 11.7368C4.95492 11.7197 4.87004 11.604 4.76745 11.4938C4.8077 11.4233 4.84729 11.3544 4.89476 11.2715C4.87682 11.2429 4.8626 11.1945 4.83067 11.1761C4.79654 11.1565 4.73879 11.1484 4.70379 11.1637C4.60317 11.2072 4.50888 11.265 4.43495 11.3048C4.18492 12.1485 4.11885 12.9852 4.07992 13.8165C3.99788 13.8972 3.91257 13.9293 3.8102 13.928C3.58685 13.925 3.36329 13.9267 3.14782 13.9267C2.97785 13.8397 2.98113 13.6738 2.97413 13.5358C2.95751 13.209 2.95204 12.8791 2.97413 12.5527C2.99382 12.2605 3.05988 11.9722 3.09817 11.6808C3.14038 11.3586 3.2281 11.048 3.30663 10.7341C3.38779 10.411 3.54245 10.129 3.71417 9.85184C3.74457 9.80306 3.77476 9.75449 3.81676 9.68734C3.74413 9.68384 3.69076 9.6694 3.64351 9.68099C3.43854 9.73065 3.2362 9.68449 3.03232 9.68187C2.59395 9.67684 2.20895 9.53793 1.8701 9.26362C1.85304 9.24962 1.83467 9.2354 1.82263 9.21746C1.78676 9.16278 1.75351 9.10678 1.70451 9.02781C2.08929 8.93899 2.45701 8.8539 2.87417 8.75743C2.78492 8.70668 2.73876 8.67802 2.69042 8.65309C2.48654 8.54765 2.26954 8.46299 2.08163 8.33437C1.78895 8.13487 1.55817 7.87412 1.46388 7.51799C1.45667 7.48977 1.45273 7.46024 1.45032 7.43137C1.44923 7.41693 1.45535 7.40228 1.46345 7.3629C1.75745 7.33949 2.06063 7.3664 2.40342 7.34627C2.22645 7.22968 2.08382 7.13343 1.93879 7.0409C1.7826 6.94093 1.68898 6.79043 1.60257 6.63424C1.5166 6.47915 1.45207 6.31684 1.45076 6.11252C1.77276 6.25099 2.07704 6.38902 2.4406 6.45771C2.06435 6.03859 1.9552 5.56302 1.94076 5.04481C2.17351 5.19596 2.38942 5.33574 2.60423 5.47509C2.67423 5.42259 2.65935 5.36527 2.63857 5.31015C2.5222 4.99821 2.51235 4.67402 2.5222 4.34765C2.52657 4.19977 2.58738 4.01515 2.66351 3.90971C2.83195 4.05277 2.99973 4.19562 3.18807 4.35574C3.18807 4.22712 3.20863 4.11359 3.1837 4.01056C3.12988 3.78831 3.15417 3.57524 3.18173 3.35299C3.20623 3.15481 3.2152 2.9564 3.28279 2.76631C3.28957 2.74706 3.30248 2.72999 3.32085 2.69674C3.46654 2.78643 3.6072 2.87284 3.77279 2.97477C3.76732 2.45656 3.75354 1.96524 4.07204 1.52468C4.17529 1.63799 4.26717 1.73884 4.37938 1.86177C4.40629 1.80118 4.43626 1.76181 4.44129 1.71915C4.48067 1.40131 4.58917 1.10315 4.7016 0.806962C4.80398 0.537025 4.9862 0.321993 5.21807 0.125556C5.30163 0.125118 5.38542 0.0255872 5.51054 0.0914309C5.49851 0.123806 5.49042 0.157275 5.4751 0.187243C5.18832 0.749431 4.8847 1.30374 4.61848 1.87577C4.35007 2.45131 4.11317 3.04084 3.89638 3.63956C3.67501 4.2514 3.49935 4.8744 3.33967 5.50243C3.26748 5.78659 3.24188 6.08168 3.18917 6.37109C3.1242 6.72874 3.09423 7.08793 3.09992 7.45149C3.10451 7.72756 3.15723 7.99531 3.24407 8.25343C3.3541 8.57981 3.70476 8.90027 4.10004 8.82174C4.25907 8.72265 4.31485 8.57828 4.31288 8.38928C4.3096 8.11496 4.2851 7.84634 4.23151 7.57574C4.20132 7.42502 4.1801 7.25396 4.27307 7.08662C4.62438 7.18965 4.92976 7.35918 5.20276 7.57706C5.30863 7.57443 5.35785 7.50049 5.40357 7.43727C5.57267 7.20452 5.73257 6.96477 5.89926 6.72984C5.97626 6.62221 6.0607 6.51962 6.15257 6.40084C6.01082 6.08168 5.8671 5.75793 5.74023 5.47202C5.74023 5.25787 5.73673 5.08112 5.74088 4.90459C5.75445 4.34787 5.76626 3.79115 5.7877 3.23531C5.79448 3.05156 5.82751 2.86912 5.84698 2.69652C5.91151 2.62171 5.97342 2.54909 6.04998 2.46027C6.08717 2.52262 6.12085 2.56199 6.13507 2.60727C6.27813 3.0649 6.41726 3.52362 6.55857 3.98168C6.63426 4.22821 6.71192 4.47474 6.78126 4.69699C6.70907 4.79237 6.64279 4.87943 6.55792 4.99187C6.53013 5.20515 6.53013 5.20515 6.61523 5.38802C6.67713 5.42937 6.74451 5.47443 6.7946 5.50768C7.11507 5.56543 7.35045 5.49696 7.43204 5.13734C7.41673 4.97765 7.33798 4.82715 7.1621 4.73024C7.39792 3.97709 7.6311 3.23312 7.86823 2.47559C7.93123 2.50599 7.98307 2.53115 8.05942 2.5679C8.08917 2.68274 8.14604 2.80896 8.15085 2.93671C8.1747 3.5899 8.18213 4.24374 8.20204 4.89649C8.20751 5.07259 8.23792 5.24759 8.25367 5.39721C8.09463 5.74152 7.94873 6.0574 7.7991 6.38115C8.09726 6.77884 8.36654 7.20015 8.68788 7.60177C9.00879 7.40774 9.28923 7.18353 9.64885 7.09253C9.68188 7.12337 9.71929 7.15793 9.77113 7.20627C9.75232 7.35962 9.75276 7.52499 9.70923 7.6779C9.62982 7.95396 9.62326 8.23199 9.63595 8.52424C9.67117 8.59468 9.7112 8.67431 9.74729 8.74606C9.98485 8.87249 10.2701 8.82306 10.4867 8.62421C10.6584 8.46649 10.7402 8.25715 10.7894 8.04102C10.8382 7.82665 10.859 7.60527 10.8806 7.38609C10.8889 7.29968 10.8669 7.21043 10.8577 7.12293C10.8531 7.07896 10.8391 7.03499 10.8408 6.99168C10.8546 6.59684 10.7728 6.21162 10.6938 5.83121C10.5508 5.13909 10.3773 4.45287 10.129 3.78896C9.95051 3.31165 9.77704 2.83149 9.5712 2.36577C9.30476 1.76202 9.01076 1.17031 8.72376 0.575525C8.64676 0.416931 8.5516 0.267525 8.46651 0.117025C8.52601 0.0465872 8.58267 0.0623372 8.63823 0.0833372C8.88126 0.176525 9.0322 0.365743 9.15229 0.584931C9.3601 0.965556 9.47692 1.37571 9.54713 1.8014C9.54932 1.81474 9.56113 1.82612 9.5736 1.84668C9.72957 1.81387 9.73132 1.61896 9.88467 1.55793C10.012 1.63274 10.0395 1.78827 10.1039 1.91384C10.1428 1.9904 10.1579 2.08293 10.1653 2.17021C10.1868 2.41281 10.1981 2.65693 10.2143 2.89996C10.2152 2.91396 10.2229 2.92774 10.2312 2.9529C10.3828 2.90937 10.4864 2.79015 10.6216 2.69652C10.6516 2.73546 10.6897 2.76412 10.6997 2.80087C10.75 2.97784 10.7971 3.15546 10.7951 3.34315C10.7916 3.6704 10.7942 3.99721 10.7942 4.35356C10.9996 4.21377 11.1158 4.00115 11.3501 3.91606C11.5384 4.43427 11.4479 4.93937 11.2899 5.46524C11.5704 5.41734 11.7403 5.1859 11.9974 5.08418C12.0251 5.59562 11.9033 6.04209 11.5491 6.41768C11.7086 6.44196 11.8626 6.39165 12.4762 6.1204C12.5263 6.30502 12.4812 6.47456 12.3856 6.62243C12.2404 6.84752 12.0665 7.04965 11.8213 7.17784C11.7506 7.21502 11.6876 7.26665 11.59 7.33249C11.7152 7.36968 11.8145 7.35087 11.9105 7.35481C12.007 7.35831 12.1041 7.35568 12.201 7.35568C12.3043 7.35568 12.4073 7.35568 12.5294 7.35568C12.4723 7.72559 12.3047 8.01106 12.0326 8.22981C11.7725 8.43915 11.4866 8.61087 11.1593 8.70143C11.1427 8.70603 11.13 8.72615 11.097 8.75612C11.4918 8.84931 11.867 8.93812 12.2539 9.02912C12.1754 9.20696 12.0446 9.33296 11.8832 9.42309C11.5813 9.59174 11.2567 9.68296 10.9082 9.68121C10.8424 9.68121 10.7763 9.69696 10.7104 9.69959C10.6315 9.70265 10.5523 9.70177 10.4733 9.69827C10.3793 9.69434 10.2859 9.68537 10.1798 9.67771C10.1852 9.83674 10.2819 9.92927 10.3478 10.0264C10.5315 10.2963 10.6162 10.6046 10.6973 10.9091C10.7955 11.2774 10.866 11.6546 10.9233 12.0319C11.0027 12.5549 10.974 13.0843 10.9701 13.6111C10.9699 13.6885 10.9364 13.7672 10.9082 13.8884ZM6.47588 8.31424C6.34442 8.60299 6.2731 8.87731 6.17948 9.1584C6.25867 9.18356 6.32363 9.20456 6.40282 9.22971C6.49732 8.94993 6.58657 8.68634 6.68063 8.40852C6.61938 8.38052 6.56251 8.35384 6.47588 8.31424ZM7.28285 8.41378C7.37779 8.70121 7.46398 8.96284 7.55257 9.2319C7.62629 9.20543 7.68645 9.18356 7.76301 9.15621C7.70504 8.86987 7.59348 8.61021 7.50073 8.32387C7.43007 8.35318 7.37167 8.37703 7.28285 8.41378Z" fill="#66AACC"/>
<path fill-rule="evenodd" clip-rule="evenodd" d="M2.25284 4.91685C2.05816 4.76263 1.90284 4.63904 1.73878 4.50932C1.62131 4.74775 1.68912 5.00107 1.67141 5.24585C1.65325 5.50091 1.71012 5.74438 1.79128 6.00754C1.56094 5.9161 1.34131 5.82904 1.11884 5.74044C1.03725 6.18604 1.20262 6.68457 1.57581 7.12054C1.39622 7.12644 1.23172 7.13257 1.05169 7.13847C1.074 7.80194 1.44303 8.24338 1.928 8.63604C1.65894 8.70779 1.39994 8.77669 1.13853 8.84625C1.14269 9.01579 1.24353 9.12319 1.33344 9.22404C1.69284 9.62697 2.14303 9.85732 2.68487 9.90413C2.87497 9.92076 3.06419 9.94591 3.25778 9.96779C3.12784 10.3541 2.96903 10.7303 2.81678 11.1046C2.46525 10.8734 2.131 10.6582 1.80112 10.4359C1.47519 10.2163 1.11512 10.0758 0.715031 10.0002C0.844093 9.71557 1.10856 9.72213 1.31112 9.60029C1.23894 9.50163 1.12475 9.46488 1.03091 9.408C0.794218 9.26625 0.568031 9.1116 0.385812 8.90379C0.225468 8.72091 0.0773743 8.52644 0.0204993 8.25257C0.330906 8.24185 0.633656 8.25344 0.965937 8.24491C0.921531 8.20226 0.904249 8.17863 0.880843 8.16463C0.583999 7.9835 0.349937 7.74179 0.170781 7.44341C0.0259681 7.20279 -0.0429382 6.95122 0.0277181 6.664C0.317343 6.7025 0.591218 6.82216 0.909937 6.81735C0.477906 6.30722 0.279499 5.74744 0.339656 5.0866C0.634093 5.18263 0.918031 5.27538 1.23347 5.37797C1.19037 5.28304 1.16828 5.20538 1.12409 5.14347C1.01428 4.98882 0.963531 4.81075 0.921968 4.63335C0.878656 4.44741 0.853499 4.25557 0.865531 4.06088C0.874062 3.91825 0.919781 3.78919 0.965062 3.65029C1.17572 3.83622 1.37347 4.01035 1.60097 4.2116C1.57975 3.54725 1.59003 2.93038 1.90066 2.33297C2.13712 2.55085 2.25394 2.82429 2.44491 3.0846C2.46022 3.0111 2.47487 2.97172 2.47575 2.93213C2.47859 2.79082 2.4775 2.64929 2.47706 2.50754C2.47575 2.16366 2.55734 1.8351 2.67219 1.51463C2.69712 1.44419 2.75641 1.386 2.80847 1.30944C2.92747 1.49144 3.03094 1.64916 3.15606 1.841C3.18931 1.70297 3.22016 1.60782 3.23503 1.50982C3.27047 1.27313 3.35884 1.05569 3.45356 0.838691C3.52181 0.682723 3.63447 0.571598 3.78584 0.451504C3.83331 0.595879 3.87509 0.723629 3.92541 0.876973C4.11922 0.591941 4.27169 0.299691 4.60266 0.143066C4.60266 0.203223 4.61819 0.253316 4.59981 0.278035C4.53134 0.371223 4.50334 0.474473 4.48781 0.585598C4.48103 0.63591 4.46266 0.685129 4.44472 0.733035C4.37494 0.918535 4.30341 1.10338 4.22925 1.29654C4.19053 1.23725 4.14744 1.17141 4.09997 1.09879C3.96456 1.08763 3.91403 1.19416 3.85847 1.28625C3.73116 1.49691 3.6465 1.72594 3.59728 1.96635C3.57387 2.08119 3.56622 2.19954 3.54762 2.31591C3.54216 2.3496 3.52269 2.38132 3.49972 2.43907C3.39625 2.34304 3.30678 2.25969 3.21228 2.17154C3.03312 2.34588 2.97931 2.56725 2.92375 2.78972C2.85266 3.07432 2.89203 3.36482 2.87322 3.67369C2.69953 3.584 2.66103 3.37882 2.47903 3.29132C2.43506 3.37969 2.37775 3.46654 2.34778 3.56125C2.29266 3.73691 2.24934 3.91585 2.25197 4.10354C2.25591 4.35575 2.25284 4.60819 2.25284 4.91685Z" fill="#66AACC"/>
<path fill-rule="evenodd" clip-rule="evenodd" d="M10.7262 9.96714C10.9343 9.94482 11.1309 9.91639 11.3287 9.90479C11.6163 9.88773 11.8801 9.78776 12.1256 9.6552C12.4559 9.4767 12.7173 9.21595 12.8947 8.85414C12.6173 8.78239 12.3437 8.71195 12.0565 8.63757C12.5434 8.25017 12.9054 7.80348 12.9413 7.13454C12.7602 7.13454 12.593 7.13454 12.3881 7.13454C12.7823 6.73248 12.9052 6.2766 12.8956 5.7481C12.6464 5.80629 12.438 5.90998 12.2008 6.01979C12.3465 5.50792 12.3515 5.0107 12.27 4.49838C12.0904 4.6386 11.9294 4.76417 11.7342 4.91664C11.7342 4.59573 11.7423 4.32142 11.732 4.04754C11.7218 3.78045 11.6594 3.52495 11.4932 3.27251C11.3641 3.41557 11.249 3.54332 11.1069 3.70104C11.1123 3.26398 11.1303 2.86192 10.9741 2.48392C10.9297 2.37673 10.8636 2.27851 10.7962 2.15535C10.6847 2.25795 10.595 2.34042 10.4911 2.43513C10.4696 2.38263 10.4423 2.34457 10.4399 2.3052C10.416 1.95323 10.3148 1.6251 10.147 1.31535C10.093 1.21582 10.0324 1.12701 9.90373 1.08457C9.8543 1.15632 9.80639 1.22632 9.74908 1.30967C9.70642 1.17163 9.66726 1.04913 9.63073 0.925979C9.59136 0.792322 9.50014 0.68251 9.48898 0.531572C9.48001 0.410604 9.4087 0.294885 9.38354 0.16626C9.71123 0.29576 9.86501 0.585385 10.0588 0.877635C10.1091 0.726916 10.1518 0.599822 10.199 0.45851C10.4248 0.601135 10.5436 0.80151 10.6153 1.03054C10.6939 1.2821 10.7597 1.5376 10.8354 1.80557C10.9802 1.67017 11.0515 1.48138 11.1806 1.30748C11.2309 1.38185 11.2886 1.43654 11.309 1.50238C11.3689 1.69882 11.4122 1.90051 11.4665 2.09935C11.5365 2.35485 11.501 2.61538 11.5109 2.87395C11.5131 2.9317 11.5196 2.98879 11.5275 3.08723C11.7382 2.83479 11.8458 2.55282 12.0689 2.34851C12.2124 2.50404 12.2706 2.69588 12.3021 2.87745C12.3603 3.2106 12.3769 3.5512 12.4016 3.88917C12.408 3.97885 12.3809 4.07117 12.3653 4.19126C12.632 4.0482 12.8015 3.84126 13.0115 3.64132C13.1412 3.94298 13.1351 4.22889 13.0822 4.53207C13.0301 4.82848 12.901 5.08748 12.7365 5.38279C13.0625 5.27692 13.3469 5.1846 13.6461 5.08704C13.7095 5.7387 13.5149 6.29782 13.0927 6.79526C13.2436 6.8657 13.3808 6.77426 13.5201 6.76201C13.664 6.74954 13.804 6.69245 13.9478 6.65439C13.9679 6.70689 13.9863 6.75479 13.9998 6.79023C13.9856 6.9031 13.9725 7.0046 13.9537 7.1551C13.8062 7.59392 13.4726 7.93779 13.0225 8.22589C13.1476 8.26395 13.2478 8.24382 13.3445 8.24776C13.4411 8.2517 13.5383 8.24864 13.635 8.24864C13.738 8.24864 13.8408 8.24864 13.9769 8.24864C13.9362 8.3602 13.9163 8.45295 13.8716 8.53148C13.666 8.89504 13.3676 9.16629 13.0093 9.37564C12.8969 9.44148 12.7866 9.5106 12.6624 9.58673C12.8676 9.71907 13.1294 9.7171 13.2585 9.95598C13.223 9.98332 13.1933 10.0251 13.1576 10.0308C12.7212 10.0988 12.3531 10.318 11.9941 10.5549C11.7294 10.7301 11.4687 10.9113 11.1902 11.1005C11.067 10.9484 11.0342 10.7404 10.9491 10.5586C10.8612 10.3718 10.8019 10.1723 10.7262 9.96714Z" fill="#66AACC"/>
<path fill-rule="evenodd" clip-rule="evenodd" d="M6.90456 8.43939C6.97785 8.43939 7.01897 8.43939 7.07169 8.43939C7.07169 8.69795 7.07169 8.94645 7.07169 9.20961C7.02903 9.21552 6.98288 9.22208 6.92425 9.23061C6.88706 9.08995 6.90938 8.95761 6.90544 8.82767C6.90172 8.70386 6.90456 8.57961 6.90456 8.43939Z" fill="#66AACC"/>
</g>
<defs>
<clipPath id="clip0_24155_29610">
<rect width="14" height="14" fill="white"/>
</clipPath>
</defs>
</svg>
