<svg width="22" height="22" viewBox="0 0 22 22" fill="none" xmlns="http://www.w3.org/2000/svg">
<path d="M10.7944 0.754028L9.32684 5.10254L4.76904 5.05093L8.38425 7.56429L7.02308 11.8609L10.7431 9.39944L14.5147 11.9125L13.0469 7.72229L16.7669 5.05093L12.1559 4.99774L10.7944 0.754028Z" fill="#CCA966"/>
<path d="M0.239521 9.37804L0.228821 8.72656L0.64866 9.14735C1.03545 9.52186 1.49148 9.93163 2.01707 10.3754C2.49985 10.7767 3.30586 11.3482 4.4398 12.09C4.7306 12.2744 5.14257 12.5426 5.67319 12.8922C6.09398 13.1707 6.40083 13.3838 6.59438 13.5346L8.36564 14.9118L8.49688 14.7412L8.62308 14.7252C8.72977 14.6984 8.83615 14.6295 8.94787 14.5209C9.06653 14.4145 9.10398 14.3185 9.05771 14.2336C9.02593 14.1873 9.00106 14.1555 8.9869 14.1379C8.95858 14.1023 8.94787 14.0683 8.95134 14.0365C8.96424 13.9424 8.99949 13.8874 9.05992 13.8732C9.12192 13.8518 9.19304 13.8782 9.26732 13.9513C9.35638 14.04 9.41838 14.1571 9.45206 14.3009C9.49266 14.4784 9.45898 14.6364 9.35261 14.7749L8.98501 15.247C8.94599 15.2983 8.9227 15.3376 8.91924 15.3606C8.90853 15.3996 8.92112 15.4349 8.9548 15.4616C8.98124 15.4814 9.29187 15.6571 9.89173 15.9907C10.2636 16.2112 10.6176 16.4355 10.9542 16.6642C11.2912 16.4355 11.6458 16.2112 12.0176 15.9907C12.6156 15.6571 12.9262 15.4814 12.953 15.4616C12.9882 15.4349 12.9989 15.3996 12.9901 15.3606C12.9848 15.3376 12.9618 15.2983 12.9212 15.247L12.5555 14.7749C12.4472 14.6364 12.4151 14.4784 12.4576 14.3009C12.4913 14.1571 12.552 14.04 12.6405 13.9513C12.7169 13.8782 12.7859 13.8518 12.8501 13.8732C12.9102 13.8874 12.9457 13.9424 12.9564 14.0365C12.9618 14.0683 12.9495 14.1023 12.9212 14.1379C12.9079 14.154 12.8876 14.182 12.8584 14.222L12.8501 14.2336C12.8038 14.3185 12.8412 14.4145 12.9599 14.5209C13.0719 14.6295 13.1802 14.6984 13.2847 14.7252L13.4106 14.7412L13.5418 14.9118L15.3134 13.5346C15.5085 13.3819 15.8154 13.1707 16.2346 12.8922C16.7652 12.5426 17.1772 12.2744 17.468 12.09C18.6003 11.3482 19.4079 10.7767 19.8907 10.3754C20.4163 9.93163 20.8723 9.52186 21.2591 9.14735L21.6777 8.72656L21.6673 9.37804C21.6406 9.86932 21.5801 10.2545 21.4863 10.535C21.3123 11.0231 21.007 11.52 20.5705 12.0242C20.1784 12.473 19.6761 12.9363 19.0583 13.4156L16.2258 15.6165C16.194 15.6394 16.1742 15.652 16.1619 15.6539C16.16 15.6504 16.121 15.6237 16.0502 15.5759L16.0263 15.5623C15.9376 15.5118 15.8832 15.4809 15.8638 15.4711C15.7537 15.4179 15.6366 15.3965 15.5107 15.4037C15.3776 15.4091 15.2429 15.4641 15.1063 15.5633C14.9644 15.6662 14.8614 15.7905 14.7957 15.9394C14.7053 16.1398 14.6751 16.3545 14.7035 16.5801C14.7157 16.6937 14.7387 16.7875 14.7743 16.8568C14.8523 17.0041 14.9392 17.0645 15.0314 17.0415C15.0811 17.0185 15.1164 17.0025 15.1412 16.9971C15.1822 16.9776 15.2158 16.9723 15.2426 16.9811C15.3313 17.0163 15.3776 17.0661 15.3811 17.1318C15.3848 17.1976 15.3423 17.2596 15.2533 17.3131C15.145 17.3789 15.0153 17.4107 14.8681 17.4053C14.6852 17.4034 14.5395 17.3307 14.4331 17.1942L14.0658 16.7221C14.0265 16.6705 13.9947 16.6371 13.968 16.6229C13.9327 16.6015 13.8971 16.605 13.8616 16.6317C13.8367 16.6513 13.5884 16.9103 13.1179 17.4075C12.9422 17.5838 12.7662 17.7541 12.5902 17.9184C12.9296 18.2075 13.2758 18.5193 13.6297 18.8537L13.6723 18.8933C13.9658 19.1665 14.2494 19.4304 14.5172 19.6877C14.6129 19.7604 14.7337 19.7783 14.8791 19.7409C14.9553 19.7233 15.0528 19.6915 15.1665 19.6399C15.2285 19.6134 15.2835 19.6185 15.3298 19.6559C15.3776 19.6842 15.3972 19.7393 15.3918 19.8174C15.3849 19.8882 15.2392 20.1173 14.9534 20.5025C14.9729 20.5733 14.9748 20.6479 14.9569 20.7241C14.9411 20.8059 14.9074 20.8821 14.8558 20.946C14.8023 21.0152 14.7384 21.0668 14.6604 21.1058C14.593 21.1414 14.5188 21.159 14.4458 21.1556C14.126 21.5584 13.929 21.7715 13.8547 21.7963C13.7836 21.8158 13.725 21.8105 13.6825 21.7768C13.6382 21.7362 13.6205 21.6846 13.6275 21.6207C13.647 21.4967 13.6593 21.3935 13.6611 21.312C13.6574 21.1644 13.6076 21.0545 13.512 20.9818C13.1818 20.7741 12.8394 20.556 12.4863 20.3288C11.9335 19.9737 11.4221 19.6238 10.9538 19.2775C10.4858 19.6238 9.9755 19.9737 9.42274 20.3288C9.06805 20.556 8.72532 20.7741 8.39517 20.9818C8.2995 21.0545 8.25135 21.1644 8.24788 21.312C8.24977 21.3935 8.26016 21.4967 8.27967 21.6207C8.28659 21.6846 8.26897 21.7362 8.22459 21.7768C8.18211 21.8105 8.12325 21.8158 8.05244 21.7963C7.97785 21.7715 7.78084 21.5584 7.46328 21.1556C7.3868 21.159 7.31599 21.1414 7.24644 21.1058C7.16996 21.0668 7.1045 21.0152 7.04974 20.946C7.00159 20.8821 6.96602 20.8059 6.95029 20.7241C6.93266 20.6479 6.93423 20.5733 6.95375 20.5025C6.66798 20.1173 6.52258 19.8882 6.51534 19.8174C6.50999 19.7393 6.53139 19.6842 6.57765 19.6559C6.62392 19.6185 6.68057 19.6134 6.74257 19.6399C6.85618 19.6915 6.95217 19.7233 7.02676 19.7409C7.17405 19.7783 7.29459 19.7604 7.39058 19.6877C7.67446 19.418 7.96935 19.141 8.2781 18.8537C8.63163 18.5194 8.97824 18.2078 9.31754 17.9188C9.14183 17.7544 8.96625 17.584 8.79083 17.4075C8.31906 16.9103 8.07043 16.6513 8.04557 16.6317C8.01221 16.605 7.97476 16.6015 7.93919 16.6229C7.91433 16.6371 7.88065 16.6705 7.84163 16.7221L7.47435 17.1942C7.36797 17.3307 7.22194 17.4034 7.0394 17.4053C6.89211 17.4107 6.76402 17.3789 6.65418 17.3131C6.567 17.2596 6.52263 17.1976 6.52798 17.1318C6.52955 17.0661 6.57582 17.0163 6.66646 16.9811C6.691 16.9723 6.72499 16.9776 6.76748 16.9971C6.78991 17.0024 6.82432 17.0178 6.87366 17.0399L6.87732 17.0415C6.96985 17.0645 7.05482 17.0041 7.13476 16.8568C7.16844 16.7875 7.19141 16.6937 7.204 16.5801C7.23453 16.3545 7.204 16.1398 7.11179 15.9394C7.04601 15.7905 6.9431 15.6662 6.80116 15.5633C6.66646 15.4641 6.52955 15.4091 6.39642 15.4037C6.27242 15.3965 6.15346 15.4179 6.0452 15.4711C6.02222 15.4818 5.96022 15.5173 5.85888 15.5759C5.78618 15.6237 5.74904 15.6504 5.74527 15.6539C5.73456 15.652 5.71159 15.6394 5.68327 15.6165L2.84857 13.4156C2.23265 12.9363 1.72847 12.473 1.33822 12.0242C0.899808 11.52 0.594528 11.0231 0.420486 10.535C0.326699 10.2545 0.266273 9.86932 0.239521 9.37804Z" fill="#CCA966"/>
</svg>
